#!OML:ASF H:\ManfredETheater\Project 1\Capture day 1\Session 1\subject.ASF
:FULLY-SPECIFIED
:DEGREES
125
root 5.85464 11.1424 -17.2091 55.4546 -83.1309 -33.0356
lowerback 59.1806 5.70118 2.2043
upperback 12.1931 5.42722 2.63721
thorax -7.75975 1.29614 -0.28405
lowerneck -18.7246 33.9088 -1.45318
upperneck 0.749065 56.0416 -3.49422
head 33.8657 -49.4381 143.543
rclavicle -4.92986e-014 -2.65378e-014
rhumerus -0.39759 -11.2467 -51.4827
rradius 74.9633
rwrist -20.0456
rhand -28.4442 -0.109174
rfingers 7.12502
rthumb -1.81488 -30.0812
lclavicle -4.92986e-014 -2.65378e-014
lhumerus -38.0657 9.29861 76.3215
lradius 128.235
lwrist 2.65445
lhand -29.609 2.30384
lfingers 7.12502
lthumb -2.93982 32.2633
rfemur -84.2315 -21.1678 -0.235296
rtibia 107.214
rfoot -29.5671 -0.887538
rtoes -43.4649
lfemur -78.151 43.5143 5.95013
ltibia 99.7431
lfoot -31.3907 -19.9083
ltoes -27.4677
126
root 5.86658 11.1498 -16.9538 59.046 -83.2392 -36.4811
lowerback 58.8862 5.33322 1.91753
upperback 12.2449 4.79476 2.31404
thorax -7.67436 1.03469 -0.240299
lowerneck -18.3258 34.7539 -1.28021
upperneck 0.995968 57.4031 -3.462
head 33.8636 -48.5427 143.696
rclavicle -6.44062e-014 -3.40916e-014
rhumerus -0.373669 -10.787 -52.1951
rradius 74.7702
rwrist -20.6434
rhand -27.8253 -0.553406
rfingers 7.12502
rthumb -1.2172 -30.5297
lclavicle -6.44062e-014 -3.40916e-014
lhumerus -38.4117 10.1749 76.0685
lradius 128.554
lwrist 2.25443
lhand -29.642 2.31267
lfingers 7.12502
lthumb -2.97175 32.2717
rfemur -83.7329 -20.9152 -1.25905
rtibia 106.181
rfoot -28.2671 -0.977702
rtoes -43.4916
lfemur -79.2522 43.9815 4.75032
ltibia 101.167
lfoot -32.4091 -19.7874
ltoes -27.4869
127
root 5.87863 11.1642 -16.6963 62.5026 -83.2799 -39.7789
lowerback 58.6442 4.779 1.7141
upperback 12.2722 3.99497 1.9176
thorax -7.61097 0.704128 -0.241256
lowerneck -17.8989 35.7021 -1.13814
upperneck 1.29025 58.9731 -3.43099
head 33.8948 -47.5343 143.841
rclavicle -1.90833e-014 -2.34566e-014
rhumerus -0.158175 -10.124 -53.0481
rradius 74.5328
rwrist -21.335
rhand -27.277 -1.04009
rfingers 7.12502
rthumb -0.687611 -31.0187
lclavicle -1.90833e-014 -2.34566e-014
lhumerus -38.8171 11.2339 75.7451
lradius 128.81
lwrist 1.83551
lhand -29.7142 2.33379
lfingers 7.12502
lthumb -3.0415 32.2918
rfemur -83.271 -20.6925 -2.20403
rtibia 105.151
rfoot -26.6814 -1.09689
rtoes -43.5042
lfemur -80.3489 44.3255 3.53604
ltibia 102.508
lfoot -33.3292 -19.7061
ltoes -27.3701
128
root 5.89091 11.1852 -16.4366 65.3642 -83.2397 -42.4828
lowerback 58.446 4.11513 1.65288
upperback 12.2794 3.15619 1.5083
thorax -7.57087 0.359508 -0.302672
lowerneck -17.4471 36.6437 -0.988052
upperneck 1.61365 60.487 -3.36064
head 33.9155 -46.5312 143.986
rclavicle -2.62396e-014 -3.10104e-014
rhumerus 0.0258706 -9.45013 -53.8738
rradius 74.2891
rwrist -22.1477
rhand -26.8097 -1.56621
rfingers 7.12502
rthumb -0.236328 -31.5458
lclavicle -2.62396e-014 -3.10104e-014
lhumerus -39.1972 12.1958 75.4603
lradius 128.971
lwrist 1.43752
lhand -29.8028 2.39947
lfingers 7.12502
lthumb -3.12699 32.3563
rfemur -82.8417 -20.5636 -3.05498
rtibia 104.164
rfoot -24.7741 -1.2721
rtoes -43.4916
lfemur -81.442 44.4859 2.31326
ltibia 103.766
lfoot -34.1133 -19.7111
ltoes -27.0136
129
root 5.90342 11.2121 -16.1753 67.2619 -83.1127 -44.2308
lowerback 58.2883 3.35712 1.75104
upperback 12.2787 2.30821 1.1198
thorax -7.54531 0.0124761 -0.408152
lowerneck -16.9889 37.5462 -0.841033
upperneck 1.95322 61.9039 -3.25612
head 33.9029 -45.5475 144.158
rclavicle -2.89232e-014 -7.75944e-014
rhumerus 0.150159 -8.81673 -54.6097
rradius 74.0437
rwrist -23.0884
rhand -26.4139 -2.12066
rfingers 7.12502
rthumb 0.145956 -32.1004
lclavicle -2.89232e-014 -7.75944e-014
lhumerus -39.5155 13.0051 75.2551
lradius 129.034
lwrist 1.10478
lhand -29.8721 2.47885
lfingers 7.12502
lthumb -3.19397 32.4347
rfemur -82.4528 -20.5759 -3.7865
rtibia 103.262
rfoot -22.5178 -1.53635
rtoes -43.3398
lfemur -82.5501 44.4301 1.07357
ltibia 104.951
lfoot -34.73 -19.8231
ltoes -26.3704
130
root 5.91577 11.2446 -15.9132 68.0315 -82.9022 -44.8875
lowerback 58.158 2.60848 2.02214
upperback 12.2821 1.58212 0.820301
thorax -7.52231 -0.283107 -0.545262
lowerneck -16.5075 38.3106 -0.654483
upperneck 2.28859 62.9852 -3.08357
head 33.8273 -44.7112 144.358
rclavicle 3.72721e-014 3.87009e-014
rhumerus 0.0532377 -8.39502 -55.1227
rradius 73.8177
rwrist -24.1401
rhand -26.0854 -2.70536
rfingers 7.12502
rthumb 0.463246 -32.6846
lclavicle 3.72721e-014 3.87009e-014
lhumerus -39.7015 13.4391 75.2283
lradius 128.98
lwrist 0.867075
lhand -29.901 2.57665
lfingers 7.12502
lthumb -3.22189 32.5321
rfemur -82.0917 -20.7386 -4.37141
rtibia 102.482
rfoot -19.9186 -1.94292
rtoes -42.8786
lfemur -83.6383 44.1452 -0.161767
ltibia 106.07
lfoot -35.1659 -20.0369
ltoes -25.4214
131
root 5.92738 11.282 -15.6515 67.6856 -82.6102 -44.4913
lowerback 58.0619 1.89708 2.44729
upperback 12.2985 0.998718 0.634609
thorax -7.48972 -0.520676 -0.68707
lowerneck -15.9977 38.9257 -0.428186
upperneck 2.61222 63.7186 -2.84744
head 33.6823 -44.0325 144.594
rclavicle 3.33958e-014 2.41151e-014
rhumerus -0.247869 -8.20232 -55.3974
rradius 73.5992
rwrist -25.2728
rhand -25.7989 -3.29969
rfingers 7.12502
rthumb 0.739991 -33.2781
lclavicle 3.33958e-014 2.41151e-014
lhumerus -39.7428 13.4938 75.3941
lradius 128.811
lwrist 0.751227
lhand -29.8913 2.69595
lfingers 7.12502
lthumb -3.2125 32.6515
rfemur -81.7605 -21.0705 -4.76737
rtibia 101.86
rfoot -17.0409 -2.54329
rtoes -41.8971
lfemur -84.6725 43.6411 -1.36785
ltibia 107.134
lfoot -35.4068 -20.3517
ltoes -24.1312
132
root 5.93779 11.3237 -15.3917 66.4093 -82.2368 -43.2346
lowerback 57.9654 1.28579 3.01226
upperback 12.3387 0.621943 0.588839
thorax -7.42831 -0.673538 -0.826359
lowerneck -15.4532 39.3524 -0.12726
upperneck 2.897 64.002 -2.54665
head 33.4464 -43.5597 144.873
rclavicle -2.10712e-014 -3.65267e-014
rhumerus -0.817142 -8.3034 -55.3793
rradius 73.3905
rwrist -26.4447
rhand -25.5409 -3.8712
rfingers 7.12502
rthumb 0.989176 -33.8487
lclavicle -2.10712e-014 -3.65267e-014
lhumerus -39.6175 13.0715 75.7764
lradius 128.533
lwrist 0.778856
lhand -29.8578 2.85414
lfingers 7.12502
lthumb -3.18016 32.8102
rfemur -81.4658 -21.5262 -4.95957
rtibia 101.428
rfoot -14.0294 -3.40976
rtoes -40.2246
lfemur -85.6522 42.9533 -2.55608
ltibia 108.154
lfoot -35.5169 -20.6162
ltoes -22.878
133
root 5.94619 11.3689 -15.1363 64.7249 -81.8046 -41.6643
lowerback 57.9155 0.762023 3.63958
upperback 12.3911 0.3873 0.648485
thorax -7.35149 -0.770798 -0.938014
lowerneck -14.87 39.6684 0.226763
upperneck 3.1601 64.0175 -2.20428
head 33.1451 -43.196 145.191
rclavicle -4.21423e-014 -2.26615e-014
rhumerus -1.49635 -8.55913 -55.2023
rradius 73.1378
rwrist -27.5377
rhand -25.2951 -4.37308
rfingers 7.12502
rthumb 1.22657 -34.3493
lclavicle -4.21423e-014 -2.26615e-014
lhumerus -39.3931 12.3844 76.251
lradius 128.161
lwrist 0.913157
lhand -29.7503 2.9675
lfingers 7.12502
lthumb -3.07629 32.9251
rfemur -81.2213 -22.029 -4.91947
rtibia 101.214
rfoot -11.1511 -4.43333
rtoes -37.682
lfemur -86.5024 42.1774 -3.67763
ltibia 109.135
lfoot -35.4928 -20.8532
ltoes -21.6166
134
root 5.95169 11.4167 -14.8879 63.0515 -81.347 -40.205
lowerback 57.9355 0.289151 4.21203
upperback 12.4554 0.183078 0.782016
thorax -7.26447 -0.86339 -0.955892
lowerneck -14.2551 39.9894 0.556152
upperneck 3.46188 64.0621 -1.83693
head 32.8302 -42.7841 145.526
rclavicle -1.23246e-014 4.94477e-015
rhumerus -2.04182 -8.72615 -54.988
rradius 72.7828
rwrist -28.463
rhand -25.0488 -4.74998
rfingers 7.12502
rthumb 1.46443 -34.7247
lclavicle -1.23246e-014 4.94477e-015
lhumerus -39.1561 11.7255 76.7386
lradius 127.755
lwrist 1.17758
lhand -29.6706 3.11003
lfingers 7.12502
lthumb -2.99939 33.0687
rfemur -81.0517 -22.5028 -4.63127
rtibia 101.246
rfoot -8.68818 -5.46869
rtoes -34.2635
lfemur -87.1845 41.415 -4.71762
ltibia 110.078
lfoot -35.3751 -21.034
ltoes -20.4673
135
root 5.95426 11.4657 -14.6485 61.5753 -80.8973 -39.0342
lowerback 58.0314 -0.153149 4.73021
upperback 12.5125 -0.0191073 0.910919
thorax -7.18916 -0.957998 -0.953728
lowerneck -13.5876 40.3498 0.934942
upperneck 3.79082 64.1412 -1.43936
head 32.505 -42.3099 145.873
rclavicle 4.17448e-014 1.65488e-014
rhumerus -2.46281 -8.80042 -54.8595
rradius 72.3016
rwrist -29.1225
rhand -24.8059 -4.94753
rfingers 7.12502
rthumb 1.699 -34.9205
lclavicle 4.17448e-014 1.65488e-014
lhumerus -38.9444 11.0957 77.1224
lradius 127.353
lwrist 1.58186
lhand -29.6071 3.2794
lfingers 7.12502
lthumb -2.93798 33.2389
rfemur -80.9743 -22.9111 -4.09315
rtibia 101.544
rfoot -6.89919 -6.3418
rtoes -30.3804
lfemur -87.6991 40.7336 -5.67854
ltibia 110.985
lfoot -35.1333 -21.2393
ltoes -19.3821
136
root 5.954 11.5147 -14.4192 60.2947 -80.4952 -38.1322
lowerback 58.182 -0.537043 5.15
upperback 12.5628 -0.211975 1.02429
thorax -7.12627 -1.05081 -0.927392
lowerneck -12.8667 40.7503 1.37343
upperneck 4.14561 64.254 -1.01047
head 32.1696 -41.7666 146.234
rclavicle 4.05521e-014 1.91579e-014
rhumerus -2.76275 -8.78194 -54.8256
rradius 71.6804
rwrist -29.4662
rhand -24.5752 -4.93988
rfingers 7.12502
rthumb 1.92181 -34.911
lclavicle 4.05521e-014 1.91579e-014
lhumerus -38.7647 10.5034 77.3913
lradius 126.975
lwrist 2.07901
lhand -29.5624 3.46796
lfingers 7.12502
lthumb -2.89486 33.4281
rfemur -81.0012 -23.2487 -3.32132
rtibia 102.122
rfoot -5.94256 -6.88111
rtoes -26.8291
lfemur -88.0614 40.1643 -6.58863
ltibia 111.856
lfoot -34.773 -21.4785
ltoes -18.2971
137
root 5.95122 11.5631 -14.2002 59.0657 -80.1675 -37.3471
lowerback 58.391 -0.857015 5.45297
upperback 12.6015 -0.398592 1.10987
thorax -7.08251 -1.14223 -0.880917
lowerneck -12.0979 41.1795 1.8761
upperneck 4.51396 64.3811 -0.557635
head 31.8289 -41.1774 146.603
rclavicle -5.08889e-014 -2.86498e-014
rhumerus -2.95262 -8.6829 -54.8896
rradius 70.9131
rwrist -29.4815
rhand -24.369 -4.72681
rfingers 7.12502
rthumb 2.12103 -34.696
lclavicle -5.08889e-014 -2.86498e-014
lhumerus -38.616 9.95969 77.5426
lradius 126.632
lwrist 2.58718
lhand -29.4835 3.64738
lfingers 7.12502
lthumb -2.81861 33.6085
rfemur -81.1137 -23.5387 -2.34534
rtibia 102.986
rfoot -5.8588 -6.99596
rtoes -24.2281
lfemur -88.2747 39.7019 -7.47424
ltibia 112.686
lfoot -34.294 -21.7859
ltoes -17.207
